<svg width="95" height="97" viewBox="0 0 95 97" fill="none" xmlns="http://www.w3.org/2000/svg">
<path fill-rule="evenodd" clip-rule="evenodd" d="M49.3242 51.7333C49.3242 53.5165 50.8383 54.9667 52.7002 54.9667C54.5621 54.9667 56.0763 53.5165 56.0763 51.7333C56.0763 49.9501 54.5621 48.5 52.7002 48.5C50.8383 48.5 49.3242 49.9501 49.3242 51.7333ZM49.3242 37.1833C49.3242 35.4002 47.81 33.95 45.9481 33.95C44.0862 33.95 42.572 35.4002 42.572 37.1833C42.572 38.9665 44.0862 40.4167 45.9481 40.4167C47.81 40.4167 49.3242 38.9665 49.3242 37.1833ZM42.572 58.2C41.6402 58.2 40.884 58.9259 40.884 59.8167C40.884 60.7075 41.6402 61.4333 42.572 61.4333C43.5038 61.4333 44.2601 60.7075 44.2601 59.8167C44.2601 58.9259 43.5038 58.2 42.572 58.2ZM42.572 54.9667C45.364 54.9667 47.6361 57.1427 47.6361 59.8167C47.6361 62.4906 45.364 64.6667 42.572 64.6667C39.78 64.6667 37.5079 62.4906 37.5079 59.8167C37.5079 57.1427 39.78 54.9667 42.572 54.9667ZM94.3187 94.0997C93.2857 95.9702 91.0946 97 88.149 97H7.1233C3.17161 97 1.57473 95.157 0.975477 94.0577C-0.167323 91.9641 0.3374 89.164 2.36135 86.3769L32.7274 42.7528C32.7274 42.7528 34.1319 40.5929 34.1319 37.1833V14.55C34.1319 13.6576 34.8864 12.9333 35.8199 12.9333C36.7534 12.9333 37.5079 13.6576 37.5079 14.55V37.1833C37.5079 41.6049 35.6258 44.4163 35.5447 44.5343L16.7552 71.5262C22.1704 72.2537 35.4046 73.6085 45.5396 71.1818C59.2937 67.8903 72.798 71.046 73.3652 71.1818C74.27 71.3985 74.8203 72.2747 74.5941 73.1412C74.3679 74.0061 73.4462 74.53 72.5482 74.3182C72.4182 74.2891 59.2735 71.2287 46.3566 74.3182C41.674 75.4401 36.463 75.8136 31.6049 75.8136C23.9598 75.8136 17.1857 74.8905 14.684 74.5041L5.15168 88.1973C3.87046 89.961 3.43326 91.5826 3.96836 92.5606C4.54061 93.6099 6.18982 93.7667 7.1233 93.7667H88.149C89.7594 93.7667 90.9224 93.3366 91.3343 92.5881C91.8559 91.6424 91.4069 90.0047 90.1307 88.2102L59.736 44.5472C59.6549 44.4309 57.7644 41.6631 57.7644 37.1833V8.08333C57.7644 7.19093 58.5189 6.46667 59.4524 6.46667H61.1404V3.23333H34.1319V6.46667H52.7002C53.6337 6.46667 54.3883 7.19093 54.3883 8.08333C54.3883 8.97573 53.6337 9.7 52.7002 9.7H34.1319C32.27 9.7 30.7558 8.24985 30.7558 6.46667V3.23333C30.7558 1.45015 32.27 0 34.1319 0H61.1404C63.0023 0 64.5165 1.45015 64.5165 3.23333V6.46667C64.5165 8.24985 63.0023 9.7 61.1404 9.7V37.1833C61.1404 40.6381 62.5297 42.7333 62.5449 42.7528L92.9295 86.4027C94.9737 89.2756 95.47 92.0142 94.3187 94.0997Z" fill="black"/>
</svg>
