<svg width="137" height="54" viewBox="0 0 137 54" fill="none" xmlns="http://www.w3.org/2000/svg">
<path d="M41.7511 52C23.1007 52 13.7756 52 7.98166 48.3387C2.18774 44.6775 2.18774 38.785 2.18774 27C2.18774 15.2149 2.18774 9.32233 7.98166 5.66117C13.7756 2 23.1007 2 41.7511 2C60.4012 2 69.7263 2 75.5203 5.66117C81.3144 9.32233 81.3144 15.2149 81.3144 27" stroke="black" stroke-width="4" stroke-linecap="round" stroke-linejoin="round"/>
<path d="M54.9388 27C54.9388 38.785 54.9388 44.6775 60.7329 48.3387C66.5269 52 75.852 52 94.5022 52C113.152 52 122.477 52 128.271 48.3387C134.065 44.6775 134.065 38.785 134.065 27C134.065 15.2149 134.065 9.32233 128.271 5.66117C122.477 2 113.152 2 94.5022 2" stroke="black" stroke-width="4" stroke-linecap="round" stroke-linejoin="round"/>
</svg>
