<!DOCTYPE svg PUBLIC "-//W3C//DTD SVG 1.1//EN" "http://www.w3.org/Graphics/SVG/1.1/DTD/svg11.dtd">

<!-- Uploaded to: SVG Repo, www.svgrepo.com, Transformed by: SVG Repo Mixer Tools -->
<svg fill="#000000" width="256px" height="256px" viewBox="0 0 24 24" id="information-chat" data-name="Flat Color" xmlns="http://www.w3.org/2000/svg" class="icon flat-color">

<g id="SVGRepo_bgCarrier" stroke-width="0"/>

<g id="SVGRepo_tracerCarrier" stroke-linecap="round" stroke-linejoin="round"/>

<g id="SVGRepo_iconCarrier">

<path id="primary" d="M19.08,4.93a10,10,0,0,0-8.69-2.8h0A10,10,0,0,0,3,16.25l-.63,3.06a2,2,0,0,0,.55,1.82,2,2,0,0,0,1.82.54l3.06-.62A10,10,0,0,0,12,22a9.62,9.62,0,0,0,1.84-.17,10,10,0,0,0,5.24-16.9Z" style="fill: #000000;"/>

<path id="secondary" d="M12,17a1,1,0,0,1-1-1V12a1,1,0,0,1,2,0v4A1,1,0,0,1,12,17ZM12,6.5A1.5,1.5,0,1,0,13.5,8,1.5,1.5,0,0,0,12,6.5Z" style="fill: #8fd9e5;"/>

</g>

</svg>