<svg width="188" height="168" viewBox="0 0 188 168" fill="none" xmlns="http://www.w3.org/2000/svg">
<path d="M3.06997 47.1408C4.89997 45.7899 6.00997 45.0625 6.97997 44.2232C28.57 25.5429 55.37 13.0493 84.08 2.8179C85.64 2.26636 87.29 1.8507 88.88 1.33114C92.3027 0.150387 96.1529 0.0307044 99.68 0.995421C109.736 3.61931 119.53 6.8444 128.98 10.6433C143.59 16.4705 157.93 22.6333 170.86 30.7225C176.7 34.3755 180.8 38.6519 181.86 44.7028C183.13 51.9368 184.86 59.0908 186.29 66.3327C186.568 67.6858 186.712 69.0542 186.72 70.4253C186.72 83.4544 186.683 96.4835 186.61 109.513C186.61 109.968 186.32 110.48 186.49 110.871C188.61 115.979 185.13 119.608 181.57 123.277C174.49 130.583 165.47 136.274 156.81 142.237C147.72 148.512 138.32 154.499 129.03 160.622C127.03 161.933 125.03 163.188 122.93 164.403C120.534 165.854 117.777 166.878 114.845 167.407C111.913 167.937 108.874 167.959 105.93 167.472C87.85 164.962 70.07 161.669 52.93 156.281C47.93 154.683 42.79 153.164 37.66 151.733C29.24 149.375 21.73 145.594 13.92 142.269C6.74997 139.152 2.84997 134.636 2.73997 127.937C2.62997 121.766 1.97997 115.604 1.60997 109.433C1.12997 101.439 0.519973 93.4461 0.319973 85.4527C0.189973 80.4409 0.699973 75.4211 0.969973 70.4013C1.03997 69.0345 1.26997 67.6676 1.38997 66.3008C1.95997 59.9141 2.50997 53.5434 3.06997 47.1408ZM10.38 51.9927C9.81997 54.5266 9.23997 56.3011 9.06997 58.1076C8.49997 63.8069 7.69997 69.5141 7.69997 75.2213C7.69997 82.2954 8.40997 89.3775 8.77997 96.4595C9.34997 107.442 9.99997 118.425 10.38 129.416C10.49 132.525 11.91 134.7 15.29 136.074C21.67 138.656 27.94 141.438 34.5 143.708C40.5 145.794 46.85 147.337 53.06 149.079C60.62 151.198 67.99 153.875 76.06 154.611C82.0285 155.192 87.8714 156.416 93.43 158.248C97.62 159.599 102.01 160.83 107.26 160.062C107.36 158.248 107.6 156.473 107.55 154.707C107.21 142.349 106.75 129.983 106.45 117.626C106.28 110.296 106.45 102.958 106.22 95.6362C106.11 91.3118 106.42 86.9395 104.65 82.2634C97.65 81.9517 91.99 78.7064 86.01 76.0686C83.01 74.7417 80.01 73.3669 77.01 72.0719C60.82 64.9819 43.22 60.7774 25.93 55.9414C21.08 54.5906 16.14 53.4475 10.38 51.9927ZM165.78 36.7575C164.095 35.4204 162.305 34.1708 160.42 33.0166C142.983 23.8675 124.532 16.0171 105.3 9.56425C98.43 7.25418 92.3 7.36609 85.52 9.5083C69.18 14.624 54.3 21.7141 40.12 29.8513C32.8318 33.8889 25.9689 38.3961 19.6 43.328C18.3 44.3591 16.3 45.3583 17.46 47.4046C18.2041 47.6943 18.9767 47.9349 19.77 48.124C33.77 50.6019 47.12 54.7504 60.54 58.6592C67.54 60.6895 74.18 63.3432 80.89 65.8531C90.13 69.3622 98.7 73.9743 108.79 76.7001L165.78 36.7575ZM113.3 82.2314C113.18 83.5423 113 84.4536 113.03 85.3648C113.49 102.06 113.967 118.758 114.46 135.459C114.647 141.411 114.907 147.361 115.24 153.308C115.36 155.25 115.35 157.305 117.56 159.015C118.659 158.596 119.713 158.104 120.71 157.544C132.77 149.447 144.9 141.414 156.79 133.157C161.53 129.864 166.04 126.402 171.06 123.309C176.23 120.112 180.88 116.227 178.73 109.952C178.16 108.282 178.96 106.323 179.07 104.493C179.31 100.376 179.68 96.2677 179.67 92.1511C179.67 85.5087 179.42 78.8743 179.18 72.2398C178.898 62.0303 176.77 51.907 172.86 42.185C171.031 42.9687 169.265 43.8416 167.57 44.7988C158.67 50.5619 149.84 56.3971 140.99 62.2082C140.332 62.6465 139.71 63.1192 139.13 63.623C133.141 68.8537 126.522 73.6006 119.37 77.7952C117.226 79.1649 115.198 80.6469 113.3 82.2314Z" fill="black"/>
<path d="M10.3799 51.9926C16.1399 53.4474 21.0799 54.5904 25.9299 55.9413C43.2199 60.7373 60.8199 64.9817 76.9999 72.0478C79.9999 73.3667 82.9999 74.7416 85.9999 76.0445C91.9999 78.6823 97.6199 81.9276 104.64 82.2393C106.41 86.9154 106.1 91.2877 106.21 95.6121C106.4 102.934 106.27 110.272 106.44 117.602C106.74 129.959 107.2 142.325 107.54 154.683C107.59 156.449 107.35 158.224 107.25 160.038C102 160.838 97.6099 159.575 93.4199 158.224C87.8594 156.402 82.0166 155.19 76.0499 154.619C67.9899 153.819 60.6199 151.206 53.0499 149.087C46.8399 147.345 40.5099 145.802 34.4899 143.716C27.9399 141.438 21.6699 138.632 15.2999 136.074C11.9199 134.699 10.4999 132.525 10.3899 129.416C10.0099 118.425 9.38994 107.442 8.78994 96.4594C8.41994 89.3773 7.69994 82.2953 7.70994 75.2212C7.70994 69.514 8.50994 63.8067 9.07994 58.1075C9.23994 56.301 9.81994 54.5265 10.3799 51.9926ZM29.6099 65.2775C24.7899 65.2136 21.7999 66.2607 20.0399 68.9864C19.0131 70.3499 18.2035 71.8107 17.6299 73.3348C15.2299 81.8396 19.4799 86.1241 29.3199 87.5149C36.9199 88.562 41.9199 85.1169 42.4899 78.9141C42.5798 76.4106 41.9144 73.9267 40.5499 71.6721C39.6669 69.8898 38.1711 68.3436 36.2352 67.212C34.2993 66.0805 32.0025 65.4098 29.6099 65.2775ZM87.0199 105.86C88.1599 105.748 89.5799 105.684 91.0199 105.452C95.4099 104.724 97.4799 102.862 97.1399 99.2171C96.3999 91.4316 93.2299 88.1623 85.6499 85.3487C82.6499 84.2536 80.4199 85.005 78.2499 87.0593C75.3099 89.8409 74.4499 93.1102 74.4299 96.5793C74.4299 102.502 76.9799 104.852 84.2399 105.62C85.0399 105.668 85.8899 105.724 87.0199 105.86ZM40.5499 123.988C40.6999 119.192 35.5499 113.885 29.7199 112.59C22.6099 110.991 17.3299 113.997 16.7199 119.936C16.6149 121.067 16.6149 122.202 16.7199 123.333C17.3099 130.015 23.5199 134.044 31.7799 133.077C34.6899 132.733 37.4099 131.854 38.5999 129.552C39.4162 127.737 40.0679 125.878 40.5499 123.988ZM97.8999 139.735C97.7399 134.771 91.1799 128.593 84.8399 127.545C83.7346 127.312 82.5651 127.365 81.4999 127.697C75.3999 130.199 72.6799 132.493 73.0399 137.609C73.4399 143.468 76.5499 146.106 84.0899 146.937C86.0516 147.164 88.0421 147.182 90.0099 146.993C95.6999 146.402 98.0499 144.163 97.8999 139.735Z" fill="white"/>
<path d="M165.78 36.7574L108.78 76.7239C98.7 74.0142 90.13 69.4021 80.89 65.893C74.18 63.3431 67.5 60.6893 60.54 58.699C47.12 54.7503 33.77 50.6018 19.77 48.1239C18.9767 47.9348 18.2042 47.6942 17.46 47.4045C16.34 45.3582 18.31 44.359 19.6 43.3279C25.9689 38.396 32.8318 33.8887 40.12 29.8512C54.32 21.714 69.18 14.6639 85.52 9.50818C92.35 7.36597 98.43 7.25406 105.3 9.56413C124.532 16.017 142.983 23.8674 160.42 33.0165C162.305 34.1707 164.095 35.4202 165.78 36.7574ZM91.3 30.2188C86.85 29.3396 83.44 32.2252 81.15 36.2538C77.44 42.7683 81.55 49.4827 90.15 51.2093C97.02 52.5921 101.82 50.7457 105.99 45.6939C109.05 41.977 108.46 38.6118 106.39 34.759C104.39 31.0262 100.39 31.0342 96.59 30.4347C94.8329 30.2857 93.0669 30.2136 91.3 30.2188Z" fill="white"/>
<path d="M113.3 82.2313C115.198 80.6468 117.226 79.1648 119.37 77.795C126.522 73.6005 133.141 68.8535 139.13 63.6229C139.71 63.119 140.332 62.6464 140.99 62.2081C149.84 56.3969 158.67 50.5618 167.57 44.7986C169.265 43.8415 171.031 42.9685 172.86 42.1848C176.77 51.9069 178.898 62.0301 179.18 72.2397C179.42 78.8741 179.65 85.5086 179.67 92.151C179.67 96.2676 179.31 100.376 179.07 104.493C178.96 106.323 178.16 108.282 178.73 109.952C180.88 116.227 176.23 120.128 171.06 123.309C166.06 126.402 161.53 129.863 156.79 133.157C144.9 141.414 132.79 149.447 120.71 157.544C119.713 158.104 118.659 158.596 117.56 159.015C115.35 157.328 115.36 155.25 115.24 153.308C114.9 147.361 114.64 141.411 114.46 135.459C113.953 118.758 113.477 102.06 113.03 85.3647C113 84.4534 113.18 83.5422 113.3 82.2313ZM118.98 128.688C119.14 129.736 119.39 131.086 119.55 132.437C119.91 135.467 121.79 137.585 125.44 138.48C129.99 139.591 134.95 139.903 138.31 137.001C146.31 130.055 142.31 120.064 133.66 116.722C130.37 115.451 127.07 116.187 124.42 118.489C121.2 121.287 119.82 124.716 118.98 128.688ZM149.59 64.9338C149.67 71.0487 154.83 75.6368 161.29 76.0125C162.125 76.0405 162.957 75.9268 163.733 75.6788C164.509 75.4308 165.21 75.0541 165.79 74.5737C167.9 72.4376 169.623 70.0751 170.91 67.5556C172.86 63.495 169.24 57.8997 164.12 56.3649C159.32 54.8862 152.85 57.2122 150.67 61.3688C150.155 62.5236 149.793 63.7185 149.59 64.9338Z" fill="white"/>
<path d="M29.61 65.2775C32.0025 65.4098 34.2994 66.0805 36.2353 67.212C38.1711 68.3436 39.667 69.8898 40.55 71.6721C41.9144 73.9267 42.5798 76.4106 42.49 78.9141C41.92 85.1169 36.92 88.562 29.32 87.5149C19.48 86.164 15.23 81.8396 17.63 73.3347C18.2036 71.8107 19.0132 70.3499 20.04 68.9864C21.8 66.2607 24.79 65.2136 29.61 65.2775ZM34.86 78.0188C33.32 76.0365 32.17 74.27 30.68 72.7193C29.74 71.7601 27.09 71.9679 26.03 72.8152C25.1412 73.5402 24.5561 74.468 24.3555 75.4703C24.1549 76.4726 24.3486 77.5 24.91 78.4105C25.3972 79.3604 26.3085 80.1318 27.4671 80.5749C28.6257 81.018 29.9489 81.1013 31.18 80.8085C32.49 80.4568 33.4 79.1699 34.86 78.0188Z" fill="black"/>
<path d="M87.02 105.86C85.89 105.764 85.02 105.708 84.19 105.62C76.93 104.82 74.33 102.502 74.38 96.5793C74.38 93.1102 75.26 89.8409 78.2 87.0593C80.37 85.005 82.65 84.2536 85.6 85.3487C93.18 88.1623 96.35 91.4316 97.09 99.2171C97.43 102.862 95.36 104.724 90.97 105.452C89.58 105.644 88.16 105.708 87.02 105.86ZM82.11 94.573C82.11 95.1005 81.92 95.6281 82.11 95.9718C82.71 96.891 83.26 98.122 84.26 98.4897C84.8689 98.6647 85.5218 98.7191 86.1628 98.6481C86.8037 98.5771 87.4136 98.3828 87.94 98.082C88.66 97.4905 88.69 96.0437 88.41 95.0925C87.961 94.0552 87.2496 93.1028 86.32 92.2949C86.0753 92.1024 85.7768 91.9593 85.4491 91.8775C85.1214 91.7957 84.7741 91.7774 84.4359 91.8243C84.0976 91.8712 83.7783 91.9819 83.5042 92.1471C83.2301 92.3123 83.0093 92.5274 82.86 92.7745C82.59 93.342 82.35 93.9735 82.11 94.533V94.573Z" fill="black"/>
<path d="M40.55 123.988C40.0926 125.887 39.4643 127.757 38.67 129.584C37.48 131.886 34.76 132.781 31.85 133.109C23.59 134.076 17.38 130.047 16.79 123.365C16.685 122.234 16.685 121.099 16.79 119.968C17.35 114.029 22.63 111.039 29.79 112.622C35.52 113.853 40.7 119.168 40.55 123.988ZM27.38 117.937C26.6578 118.104 25.98 118.375 25.38 118.737C22.59 121.207 23.72 125.531 27.56 126.554C28.2155 126.641 28.8867 126.615 29.5284 126.477C30.1701 126.339 30.7674 126.093 31.28 125.755C32.94 124.652 32.93 122.941 32.34 121.383C32.0001 120.494 31.3549 119.701 30.4779 119.092C29.601 118.482 28.5275 118.083 27.38 117.937Z" fill="black"/>
<path d="M97.9 139.735C98.05 144.163 95.7 146.402 90.01 146.993C88.0421 147.182 86.0517 147.164 84.09 146.937C76.55 146.138 73.44 143.468 73.04 137.609C72.68 132.501 75.4 130.199 81.5 127.697C82.5651 127.365 83.7346 127.312 84.84 127.545C91.18 128.593 97.74 134.771 97.9 139.735ZM83.16 133.261C82.36 133.794 81.6596 134.415 81.08 135.107C79.18 138.304 81.33 140.918 85.77 140.95C86.3963 140.99 87.0243 140.893 87.5873 140.67C88.1502 140.447 88.6272 140.106 88.9676 139.684C89.3081 139.262 89.4992 138.774 89.5207 138.272C89.5422 137.771 89.3934 137.273 89.09 136.834C88.5563 135.888 87.7333 135.065 86.6969 134.441C85.6606 133.816 84.4442 133.41 83.16 133.261Z" fill="black"/>
<path d="M91.2999 30.2188C93.0502 30.2151 94.7994 30.2871 96.5399 30.4346C100.35 31.0341 104.32 31.0262 106.34 34.759C108.41 38.6118 109 41.953 105.94 45.6939C101.77 50.7457 96.94 52.5921 90.1 51.2093C81.55 49.4827 77.44 42.7683 81.1 36.2538C83.48 32.2251 86.8899 29.3396 91.2999 30.2188ZM91.3699 35.4944C90.4747 36.314 89.6559 37.185 88.92 38.1002C88.39 38.913 88.0094 39.7825 87.7899 40.6821C87.3999 42.1369 88.7899 44.1991 90.6199 44.4549C92.2962 44.6987 94.0137 44.6987 95.6899 44.4549C98.0599 44.0712 99.6899 42.0569 99.7499 39.7069C99.8199 37.7405 98.17 36.9412 96.06 36.5096C94.73 36.2538 93.38 35.934 91.41 35.5184L91.3699 35.4944Z" fill="black"/>
<path d="M118.98 128.688C119.82 124.692 121.2 121.287 124.42 118.489C127.07 116.187 130.37 115.452 133.66 116.722C142.3 120.064 146.35 130.055 138.3 137.033C134.94 139.935 129.98 139.623 125.43 138.512C121.78 137.617 119.9 135.499 119.54 132.469C119.39 131.086 119.14 129.736 118.98 128.688ZM131.73 123.541C130.878 123.753 130.064 124.054 129.31 124.436C128.109 125.23 127.245 126.302 126.839 127.505C126.432 128.707 126.503 129.981 127.04 131.15C127.119 131.424 127.269 131.682 127.481 131.907C127.692 132.131 127.96 132.318 128.267 132.455C128.574 132.592 128.913 132.676 129.263 132.702C129.614 132.728 129.967 132.695 130.3 132.605C133.76 131.958 136.23 127.481 134.4 125.012C133.9 124.34 132.64 124.02 131.73 123.541Z" fill="black"/>
<path d="M149.59 64.9338C149.789 63.705 150.152 62.4966 150.67 61.3288C152.85 57.1723 159.32 54.8462 164.12 56.325C169.24 57.9237 172.86 63.519 170.91 67.5156C169.623 70.0352 167.9 72.3976 165.79 74.5338C165.21 75.0142 164.509 75.3908 163.733 75.6388C162.957 75.8868 162.125 76.0006 161.29 75.9725C154.83 75.6368 149.67 71.0487 149.59 64.9338ZM163.37 65.1176C163.37 64.9418 163.57 64.4062 163.37 64.0705C162.86 63.3671 162.23 62.3919 161.43 62.24C160.905 62.2102 160.378 62.2719 159.886 62.421C159.394 62.5701 158.948 62.8029 158.58 63.1033C157.889 63.7896 157.468 64.624 157.37 65.5013C157.09 67.1639 158.8 69.0184 160.44 68.8985C162.51 68.7466 162.9 67.3638 163.26 66.0449C163.3 65.837 163.3 65.6052 163.37 65.0937V65.1176Z" fill="black"/>
<path d="M34.86 78.0188C33.4 79.1699 32.49 80.4168 31.18 80.8085C29.9489 81.1013 28.6257 81.018 27.4671 80.5749C26.3085 80.1318 25.3972 79.3604 24.91 78.4105C24.3486 77.5 24.1549 76.4726 24.3555 75.4703C24.5561 74.468 25.1412 73.5402 26.03 72.8152C27.09 71.9679 29.74 71.7601 30.68 72.7193C32.17 74.27 33.3 76.0365 34.86 78.0188Z" fill="white"/>
<path d="M82.11 94.533C82.35 93.9735 82.59 93.342 82.9 92.7345C83.0493 92.4874 83.2701 92.2724 83.5442 92.1071C83.8183 91.9419 84.1377 91.8312 84.4759 91.7844C84.8141 91.7375 85.1615 91.7557 85.4891 91.8375C85.8168 91.9194 86.1153 92.0625 86.36 92.2549C87.2896 93.0629 88.001 94.0152 88.45 95.0526C88.73 96.0038 88.7 97.4506 87.98 98.0421C87.4536 98.3429 86.8438 98.5371 86.2028 98.6081C85.5618 98.6791 84.9089 98.6248 84.3 98.4497C83.3 98.082 82.75 96.8511 82.15 95.9318C81.92 95.5881 82.11 95.0606 82.11 94.533Z" fill="white"/>
<path d="M27.38 117.937C28.5408 118.08 29.627 118.483 30.5122 119.1C31.3973 119.717 32.0451 120.523 32.38 121.423C32.97 122.981 32.98 124.692 31.32 125.795C30.8074 126.133 30.2101 126.379 29.5684 126.517C28.9267 126.655 28.2555 126.681 27.6 126.594C23.76 125.571 22.6 121.247 25.42 118.777C26.0041 118.404 26.6683 118.12 27.38 117.937Z" fill="white"/>
<path d="M83.16 133.261C84.4442 133.41 85.6605 133.816 86.6969 134.441C87.7332 135.065 88.5562 135.888 89.09 136.834C89.3934 137.273 89.5422 137.771 89.5207 138.272C89.4991 138.774 89.308 139.262 88.9676 139.684C88.6272 140.106 88.1502 140.447 87.5872 140.67C87.0242 140.893 86.3963 140.99 85.77 140.95C81.33 140.95 79.18 138.296 81.08 135.107C81.6596 134.415 82.36 133.794 83.16 133.261Z" fill="white"/>
<path d="M91.41 35.5184C93.41 35.958 94.73 36.3177 96.1 36.5575C98.21 36.9892 99.86 37.7885 99.79 39.7549C99.7 42.1049 98.1 44.1192 95.73 44.5029C94.0537 44.7467 92.3362 44.7467 90.66 44.5029C88.88 44.2471 87.44 42.1848 87.83 40.73C88.0494 39.8305 88.43 38.9609 88.96 38.1482C89.6947 37.2247 90.5136 36.3457 91.41 35.5184Z" fill="white"/>
<path d="M131.73 123.541C132.64 124.02 133.9 124.34 134.4 125.012C136.23 127.481 133.76 131.958 130.3 132.605C129.967 132.695 129.614 132.728 129.264 132.702C128.913 132.676 128.574 132.592 128.267 132.455C127.96 132.318 127.692 132.131 127.481 131.907C127.269 131.682 127.119 131.424 127.04 131.15C126.503 129.981 126.432 128.707 126.839 127.505C127.245 126.302 128.109 125.23 129.31 124.436C130.064 124.054 130.878 123.753 131.73 123.541Z" fill="white"/>
<path d="M163.37 65.0936C163.29 65.5812 163.28 65.813 163.22 66.0289C162.86 67.3478 162.47 68.7306 160.4 68.8825C158.76 69.0024 157.05 67.1479 157.33 65.4853C157.428 64.608 157.849 63.7736 158.54 63.0873C158.908 62.7869 159.354 62.5541 159.846 62.405C160.338 62.256 160.865 62.1942 161.39 62.224C162.19 62.3759 162.82 63.3511 163.33 64.0545C163.57 64.4062 163.37 64.9418 163.37 65.0936Z" fill="white"/>
</svg>
