<svg width="179" height="166" viewBox="0 0 179 166" fill="none" xmlns="http://www.w3.org/2000/svg">
<path d="M137.549 148.549C128.325 111.439 74.5536 92.8781 61.9602 79.3912C55.486 72.4574 57.108 65.0909 61.1526 61.1268C65.4966 56.8787 73.7739 56.0394 79.9488 59.7775C85.351 63.0378 95.8629 72.0829 98.2228 75.4207C100.583 78.7521 100.555 81.5089 101.822 83.7491C103.263 86.267 106.521 87.6099 111.241 86.2993C115.613 85.092 118.028 83.4909 118.028 83.4909C118.028 83.4909 113.462 83.3295 111.652 80.9472C111.652 80.9472 105.317 68.0672 103.047 62.799C110.308 64.5873 114.917 66.6533 118.14 68.5385C118.537 71.405 117.221 76.3439 117.165 76.5634C117.311 76.486 119.657 75.2012 123.145 71.9796C123.319 72.1152 123.493 72.2443 123.66 72.367C124.893 73.2773 122.623 80.4759 122.623 80.4759C122.623 80.4759 126.883 77.8224 130.141 74.2328C132.961 71.1403 135.335 67.215 135.335 67.215C135.335 67.215 126.111 63.5995 121.857 57.3371C117.59 51.0811 121.307 44.2892 121.307 44.2892C121.307 44.2892 114.193 42.1716 108.234 34.2047C101.968 25.8247 104.391 15.5271 104.391 15.5271C99.2949 17.4253 94.8256 26.8254 94.8256 26.8254C94.8256 26.8254 81.9537 20.4532 65.2321 22.4352C50.1465 22.3965 36.1259 13.9131 30.3061 0.516632C30.3061 0.516632 25.8019 18.8456 42.8647 30.3827C41.9388 30.9638 41.0129 31.5771 40.087 32.2356C31.761 36.6323 21.1865 36.374 13.0414 31.08C13.0414 31.08 13.4731 33.8303 15.0603 37.1358C16.6475 40.4349 19.3834 44.2957 23.9989 46.5166C24.4932 46.7555 24.9805 46.9492 25.4608 47.117C24.5001 48.5374 23.6091 50.0094 22.8085 51.5201C18.2626 58.596 9.13603 62.1727 0.392334 60.0551C0.392334 60.0551 4.97999 67.8218 13.2085 68.7709C15.109 68.9904 16.7659 68.7257 18.186 68.2028C18.1164 71.4179 18.2905 74.4265 18.6803 77.2801C18.4715 83.5296 13.9256 89.0754 7.29818 90.8315H7.29122C7.29122 90.8315 13.6819 94.3566 19.5992 91.9807C20.7548 91.5159 21.6459 90.8832 22.3351 90.1794C27.1943 101.064 36.0076 109.845 47.2435 119.858C50.2578 122.55 53.6411 125.43 57.0732 128.432C90.8366 130.24 116.399 144.256 138.05 165.794C138.732 161.119 139.233 155.322 137.549 148.549ZM101.968 44.6185L111.519 53.4311L96.2736 48.3308L101.968 44.6185ZM125.006 85.4129C125.006 85.4129 129.674 89.8263 136.148 90.7037C135.711 93.1041 135.05 94.301 135.05 94.301C135.05 94.301 146.161 102.597 159.769 97.2528C159.141 103.887 150.271 106.814 150.271 106.814C150.271 106.814 159.8 117.765 178.608 111.046C168.404 123.361 153.171 119.929 143.906 115.529C135.578 111.574 124.856 99.894 125.006 85.4129Z" fill="black"/>
</svg>
