<svg width="157" height="158" viewBox="0 0 157 158" fill="none" xmlns="http://www.w3.org/2000/svg">
<path d="M156.284 2.77571C156.284 1.72649 155.479 0.67695 154.138 0.414722C153.065 0.152494 151.724 0.67695 151.187 1.72649C151.187 1.98872 136.703 25.5989 118.733 30.3212C117.928 30.5835 117.123 31.1082 116.855 31.8952C116.855 31.8952 107.468 55.5055 81.1821 81.2145L78.6339 83.7067L75.5495 80.69C49.8004 55.5052 40.1447 31.8949 40.1447 31.6327C39.8766 30.8457 39.0719 30.3209 38.2673 30.0587C20.2966 25.5989 5.81257 1.98872 5.81257 1.72649C5.27603 0.677263 3.93516 0.152494 2.86209 0.414722C1.5209 0.67695 0.71625 1.72649 0.71625 2.77571C0.71625 3.82494 -0.624936 27.6977 9.03116 48.6844C10.1039 51.3076 14.1275 52.6194 21.1009 52.8819C18.6869 60.7519 19.2235 61.5389 20.0281 62.3259C21.3693 64.1621 47.1184 90.9207 61.6021 98.5284C62.0312 98.7381 62.4399 98.9482 62.8362 99.1579L52.4573 109.309C52.0974 108.347 51.8312 107.373 51.6782 106.398C50.8735 102.726 47.6549 100.102 43.8998 100.102C41.4859 100.102 39.0719 101.152 37.4626 102.988C35.8533 104.824 35.0487 106.923 35.5852 109.284C36.4161 113.511 37.9697 117.434 40.2428 120.994L24.2942 136.592C21.7812 136.755 19.3107 137.794 17.3464 139.715C13.0547 143.913 13.0547 150.471 17.3464 154.668C19.4922 156.767 22.1743 157.816 24.8567 157.816C27.8071 157.816 30.4892 156.767 32.635 154.668C34.7451 152.605 35.8153 149.97 35.8504 147.326L51.6149 131.908C55.1518 133.988 59.0795 135.496 63.2123 136.305C63.7489 136.567 64.2851 136.567 64.8216 136.567C66.699 136.567 68.5768 136.042 69.9179 134.468C71.5272 132.894 72.6 130.533 72.6 128.172C72.6 124.5 69.9179 121.352 66.1628 120.827C65.6374 120.748 65.1188 120.642 64.6066 120.515C69.5766 116.172 74.4397 112.432 78.7135 109.333C83.6475 113.031 88.406 116.744 92.7724 120.576C92.0522 120.801 91.3181 120.977 90.5707 121.089C87.084 121.614 84.1335 124.762 84.1335 128.435C83.8654 130.796 84.9381 133.157 86.8156 134.731C88.4249 135.78 90.3023 136.567 92.18 136.567C92.7165 136.567 93.2527 136.567 93.7893 136.567C97.8422 135.775 101.696 134.306 105.18 132.23L121.463 148.156C121.689 150.516 122.746 152.821 124.635 154.668C126.781 156.767 129.463 157.816 132.145 157.816C134.827 157.816 137.509 156.767 139.923 154.668C144.215 150.471 144.215 143.913 139.923 139.715C137.744 137.583 134.941 136.536 132.148 136.57L116.49 121.256C118.763 117.696 120.317 113.773 121.148 109.546C121.416 107.448 120.88 105.087 119.271 103.25C117.661 101.414 115.247 100.365 112.833 100.365C109.078 100.365 105.592 102.988 105.055 106.661C104.918 107.6 104.692 108.522 104.388 109.419L94.2092 99.4632C94.6189 99.2382 95.0177 99.0141 95.3989 98.7906C109.883 90.9207 135.364 64.4247 136.973 62.5885C137.777 61.5392 138.582 60.7522 135.9 52.8819C142.874 52.6197 146.897 51.0457 147.97 48.6844C157.625 27.4352 156.284 3.82494 156.284 2.77571ZM64.2844 94.0686C51.9463 87.2479 28.8796 64.1624 24.856 59.7027C25.1241 58.1287 26.1972 54.1937 27.27 51.0457C27.5381 50.2587 27.5381 49.4717 27.0019 48.6847C26.4653 48.16 25.6607 47.6355 24.856 47.6355C20.0281 47.6355 14.9318 47.1107 13.5909 46.3237C8.22652 33.9937 6.61722 20.3522 6.08068 11.6952C11.9816 19.303 22.7102 31.1082 35.5849 35.0432C37.9988 40.5522 48.1912 61.8014 71.7947 84.8869L74.611 87.6414L66.7585 95.3217C65.7892 95.0451 65.0354 94.5584 64.2844 94.0686ZM28.6112 150.995C26.4653 153.094 23.2467 153.094 21.1009 150.995C18.9551 148.897 18.9551 145.749 21.1009 143.65C22.3037 142.473 23.9277 141.957 25.4536 142.1C26.3151 142.212 27.6694 142.729 28.6112 143.65C30.757 145.749 30.757 148.897 28.6112 150.995ZM47.3865 129.222L34.3881 141.935C33.9168 141.146 33.3336 140.399 32.6344 139.715C32.0324 139.126 31.3814 138.623 30.6976 138.199L43.6317 125.549L45.2407 127.123L45.241 127.123L45.5091 127.385L47.3865 129.222ZM67.2349 128.697C67.503 129.746 66.6984 130.533 66.4303 130.796C65.6256 131.32 64.821 131.583 64.0163 131.32C58.3838 130.271 53.2875 127.648 49.2642 123.713C44.9726 119.515 42.2905 114.006 40.9493 108.759C40.6812 107.71 41.2174 106.923 41.4858 106.661C42.0224 105.874 42.827 105.611 43.6317 105.611C44.7044 105.611 45.7775 106.661 46.0456 107.71C46.8503 112.17 49.2642 116.63 52.7513 120.04C56.238 123.45 60.5296 125.549 65.0894 126.336C66.4303 126.336 67.2349 127.385 67.2349 128.697ZM135.899 150.995C134.022 153.094 130.535 153.094 128.389 150.995C126.243 148.897 126.243 145.749 128.389 143.65C128.767 143.28 129.179 142.979 129.612 142.74C130.298 142.424 130.996 142.338 131.607 142.338C132.008 142.338 132.409 142.265 132.768 142.118C133.895 142.256 134.993 142.763 135.899 143.65C138.045 145.749 138.045 148.897 135.899 150.995ZM113.369 125.549L126.407 138.301C125.783 138.703 125.188 139.173 124.634 139.715C124.585 139.763 124.54 139.813 124.492 139.861C124.449 139.9 124.406 139.939 124.366 139.977C124.102 140.236 123.837 140.558 123.573 140.913C123.44 141.087 123.313 141.263 123.193 141.443C123.047 141.65 122.902 141.863 122.757 142.076L109.614 129.222L111.491 127.386L111.492 127.385L111.493 127.384L113.369 125.549ZM113.101 105.611C113.905 105.611 114.71 105.874 114.978 106.661C115.246 107.185 115.783 107.71 115.514 108.759C114.442 114.268 111.491 119.777 107.468 123.713L107.602 123.844L107.486 123.958L107.2 123.713C103.177 127.648 98.0803 130.271 92.4478 131.321C91.6431 131.583 90.5704 131.321 90.0338 130.796C89.7657 130.534 89.2292 129.747 89.2292 128.697C89.2292 127.648 90.3019 126.598 91.375 126.336C95.9348 125.549 100.226 123.45 103.713 120.04C107.2 116.63 109.614 112.17 110.419 107.71C110.687 106.398 111.759 105.611 113.101 105.611ZM101.567 114.006C101.03 114.793 100.494 115.58 99.9577 116.105C99.4212 116.892 98.6165 117.417 97.8119 117.941C93.3269 113.813 88.5798 109.938 83.3209 106.068C84.3703 105.34 85.3609 104.662 86.2784 104.037C87.2677 103.334 88.3178 102.69 89.3775 102.084L101.567 114.006ZM143.141 46.3234C142.068 47.1104 136.704 47.6352 132.144 47.6352C131.339 47.6352 130.535 47.8974 129.998 48.6844C129.462 49.4714 129.462 50.2584 129.73 51.0454C131.071 54.1934 132.144 58.1284 132.412 59.7024C128.389 64.1621 105.322 87.5101 92.9837 94.0683C91.9464 94.6219 90.841 95.2095 89.706 95.8277C89.1841 95.8008 88.6425 95.9293 88.1558 96.1671C86.2784 97.2163 84.6691 98.2659 83.0595 99.3151C81.4502 100.627 79.3043 102.201 76.8904 103.775C76.6744 103.986 76.4599 104.241 76.2787 104.521C71.1898 108.208 65.2888 112.769 59.2629 118.137C58.3969 117.552 57.5686 116.88 56.7866 116.117C56.7812 116.112 56.7751 116.106 56.7697 116.101C56.2102 115.498 55.6883 114.872 55.2039 114.229L84.9365 84.8866C108.808 61.5386 118.732 40.2894 121.146 35.0429C134.021 31.1079 144.749 19.5652 150.65 11.6949C150.383 20.09 148.773 33.9937 143.141 46.3234Z" fill="black"/>
</svg>
