<svg width="62" height="55" viewBox="0 0 62 55" fill="none" xmlns="http://www.w3.org/2000/svg">
<path fill-rule="evenodd" clip-rule="evenodd" d="M29.1608 0.73562C30.1909 -0.245207 31.8091 -0.245207 32.8392 0.73562L54.1725 21.0531L60.8392 27.4024C61.9056 28.4179 61.9467 30.1059 60.9309 31.1725C59.9155 32.2389 58.2275 32.28 57.1608 31.2643L55 29.2064V49.3333C55 52.2789 52.6123 54.6667 49.6667 54.6667H36.3333H25.6667H12.3333C9.38781 54.6667 7 52.2789 7 49.3333V29.2064L4.83909 31.2643C3.77259 32.28 2.08467 32.2389 1.06897 31.1725C0.0532697 30.1059 0.0944377 28.4179 1.16092 27.4024L7.82757 21.0531L29.1608 0.73562ZM12.3333 24.1269V49.3333H23V36C23 31.5816 26.5816 28 31 28C35.4184 28 39 31.5816 39 36V49.3333H49.6667V24.1269L31 6.34919L12.3333 24.1269ZM33.6667 49.3333V36C33.6667 34.5272 32.4728 33.3333 31 33.3333C29.5272 33.3333 28.3333 34.5272 28.3333 36V49.3333H33.6667Z" fill="black"/>
</svg>
