<svg width="104" height="152" viewBox="0 0 104 152" fill="none" xmlns="http://www.w3.org/2000/svg">
<path d="M103.917 53.25C103.917 82.5672 80.6729 106.333 52 106.333C23.3273 106.333 0.083374 82.5672 0.083374 53.25C0.083374 23.9329 23.3273 0.166656 52 0.166656C80.6729 0.166656 103.917 23.9329 103.917 53.25Z" fill="#1C274C"/>
<path d="M15.6065 105.889L12.7973 116.366C8.13709 133.746 5.80699 142.435 8.91636 147.193C10.0061 148.86 11.4679 150.198 13.1643 151.081C18.0045 153.601 25.478 149.62 40.4248 141.657C45.3984 139.007 47.8852 137.682 50.5271 137.394C51.5068 137.287 52.4932 137.287 53.4729 137.394C56.1148 137.682 58.6016 139.007 63.5752 141.657C78.522 149.62 85.9958 153.601 90.8359 151.081C92.5321 150.198 93.9939 148.86 95.0834 147.193C98.1932 142.435 95.8629 133.746 91.203 116.366L88.3936 105.889C78.1126 113.333 65.5562 117.708 52 117.708C38.4438 117.708 25.887 113.333 15.6065 105.889Z" fill="#1C274C"/>
</svg>
